<svg id="regular" enable-background="new 0 0 24 24" height="512" viewBox="0 0 24 24" width="512" xmlns="http://www.w3.org/2000/svg"><g><g><path d="m13.25 23.25h-10.5c-1.105 0-2-.895-2-2v-18.5c0-1.105.895-2 2-2h10.5c1.105 0 2 .895 2 2v18.5c0 1.105-.895 2-2 2z" fill="#fafafa"/></g><g><path d="m18.475 16.289c-.146 0-.286-.058-.39-.162l-1.694-1.702c-.106-.106-.163-.251-.16-.402.004-.15.069-.292.18-.393l2.728-2.472c.162-.147.396-.183.596-.093s.326.291.322.51c-.026 1.502-.14 3.213-1.151 4.503-.097.124-.243.2-.4.21-.009.001-.021.001-.031.001z" fill="#2196f3"/></g><g><path d="m12.871 11.017c-.167 0-.326-.066-.445-.183l-1.953-1.944c-.128-.128-.195-.304-.184-.484s.098-.348.241-.459c1.481-1.161 3.444-1.29 5.168-1.321.255.021.482.142.585.37.104.229.062.498-.107.684l-2.837 3.131c-.116.128-.279.203-.451.207-.006-.001-.012-.001-.017-.001z" fill="#2196f3"/></g><g><path d="m10.115 17.739c-.158 0-.312-.062-.427-.177-.157-.157-.215-.388-.152-.601.217-.725.775-2.464 1.268-2.957.673-.673 1.767-.673 2.441 0 .673.674.673 1.769 0 2.442-.493.493-2.232 1.051-2.957 1.268-.057.017-.115.025-.173.025z" fill="#ff9800"/></g><g><path d="m12.66 10.509 2.84-3.148c1.789-2.068 4.528-3.439 6.97-3.485.172-.009.343.065.466.188s.192.292.188.466c-.046 2.441-1.418 5.18-3.495 6.978l-3.138 2.832z" fill="#eceff1"/></g><g><path d="m11.292.75h-6.792v1.75c0 .552.448 1 1 1h4.792c.552 0 1-.448 1-1z" fill="#607d8b"/></g><g><path d="m10.25 4h-4.5c-.965 0-1.75-.785-1.75-1.75 0-.414-.336-.75-.75-.75h-.5c-.414 0-.75-.336-.75-.75s.336-.75.75-.75h.5c1.241 0 2.25 1.009 2.25 2.25 0 .138.112.25.25.25h4.5c.138 0 .25-.112.25-.25 0-1.241 1.009-2.25 2.25-2.25h.5c.414 0 .75.336.75.75s-.336.75-.75.75h-.5c-.414 0-.75.336-.75.75 0 .965-.785 1.75-1.75 1.75z"/></g><g><path d="m13.25 24h-10.5c-1.517 0-2.75-1.233-2.75-2.75v-18.5c0-1.517 1.233-2.75 2.75-2.75h10.5c1.517 0 2.75 1.233 2.75 2.75v.5c0 .414-.336.75-.75.75s-.75-.336-.75-.75v-.5c0-.689-.561-1.25-1.25-1.25h-10.5c-.689 0-1.25.561-1.25 1.25v18.5c0 .689.561 1.25 1.25 1.25h10.5c.689 0 1.25-.561 1.25-1.25v-1.5c0-.414.336-.75.75-.75s.75.336.75.75v1.5c0 1.517-1.233 2.75-2.75 2.75z"/></g><g><path d="m16.283 14.928c-.192 0-.384-.074-.53-.22l-3.461-3.461c-.282-.282-.294-.736-.027-1.032l2.835-3.147c2.088-2.413 5.286-4.014 8.136-4.068.2-.011.4.076.544.22s.224.341.22.544c-.054 2.85-1.655 6.047-4.08 8.146l-3.136 2.825c-.142.129-.322.193-.501.193zm-2.428-4.238 2.454 2.454 2.618-2.358c1.859-1.609 3.194-4.016 3.505-6.219-2.203.31-4.608 1.645-6.209 3.494z"/></g><g><path d="m18.595 17.252c-.199 0-.391-.079-.532-.221l-2.313-2.324c-.292-.293-.291-.768.003-1.061.293-.292.769-.291 1.061.003l1.653 1.662c.669-1.309.761-2.94.789-4.521.007-.415.382-.736.763-.737.414.007.744.349.737.763-.036 2.051-.19 4.386-1.571 6.147-.132.169-.332.273-.546.286-.014.002-.029.003-.044.003z"/></g><g><path d="m12.788 11.433c-.191 0-.383-.073-.529-.218l-2.324-2.313c-.153-.152-.232-.361-.22-.576.013-.214.117-.413.286-.546 1.761-1.38 4.096-1.535 6.147-1.571.391.004.756.322.763.737.007.414-.323.756-.737.763-1.581.028-3.212.119-4.52.788l1.662 1.654c.293.292.294.767.002 1.061-.145.147-.338.221-.53.221z"/></g><g><path d="m9.75 18.25c-.196 0-.388-.077-.53-.22-.195-.195-.267-.481-.188-.746.269-.899.961-3.057 1.573-3.669.834-.834 2.193-.835 3.029 0 .835.836.835 2.195 0 3.03-.612.612-2.77 1.304-3.669 1.573-.07.022-.143.032-.215.032zm2.37-3.761c-.165 0-.329.063-.454.188-.161.172-.451.852-.737 1.645.792-.286 1.472-.576 1.646-.737.249-.25.249-.657-.001-.907-.126-.127-.29-.189-.454-.189zm.984 1.626h.01z"/></g></g></svg>